<svg xmlns="http://www.w3.org/2000/svg" width="512" height="512" viewBox="0 0 512 512"><rect width="512" height="512" rx="112" fill="#F4F5F0"/><rect x="6" y="6" width="500" height="500" rx="108" fill="none" stroke="#0F3D3A" stroke-opacity=".12" stroke-width="12"/><g transform="translate(118 66) scale(1.95) translate(-7 -2)"><path d="M 11.00 69.00 L 11.00 28.00 Q 11.00 26.00 12.73 27.01 L 66.23 58.31 Q 74.00 62.85 74.00 71.85 L 74.00 112.85 Q 74.00 114.85 72.27 113.85 L 18.77 82.54 Q 11.00 78.00 11.00 69.00 Z" fill="#0F3D3A"/><path d="M 11.00 114.00 L 11.00 94.00 Q 11.00 92.00 12.73 93.01 L 68.82 125.83 Q 74.00 128.85 74.00 134.85 L 74.00 156.85 Q 74.00 158.85 72.27 157.85 L 17.91 126.04 Q 11.00 122.00 11.00 114.00 Z" fill="#0F3D3A"/><path d="M 75.00 63.00 L 75.00 39.00 Q 75.00 31.00 81.91 26.96 L 116.27 6.85 Q 118.00 5.85 118.00 7.85 L 118.00 30.84 Q 118.00 39.84 110.23 44.39 L 76.73 63.99 Q 75.00 65.00 75.00 63.00 Z" fill="#2DBA9F"/><path d="M 83.00 122.00 L 83.00 89.00 Q 83.00 81.00 89.91 76.96 L 147.27 43.40 Q 149.00 42.39 149.00 44.39 L 149.00 83.39 L 83.00 122.00 Z" fill="#2DBA9F"/><path d="M 83.00 156.00 L 83.00 122.00 L 149.00 83.39 L 149.00 110.39 Q 149.00 119.39 141.23 123.93 L 84.73 156.99 Q 83.00 158.00 83.00 156.00 Z" fill="#1E7C6A"/></g><circle cx="392" cy="392" r="92" fill="#0F3D3A"/><g transform="translate(332 332) scale(5)" fill="none" stroke="#F4F5F0" stroke-width="2" stroke-linecap="round" stroke-linejoin="round"><rect width="7" height="9" x="3" y="3" rx="1" /> <rect width="7" height="5" x="14" y="3" rx="1" /> <rect width="7" height="9" x="14" y="12" rx="1" /> <rect width="7" height="5" x="3" y="16" rx="1" /></g></svg>